UbuntuMono-B.ufo
<glyph name="quotesingle" format="2">
	<unicode hex="0027"/>
	<advance width="500"/>
	<outline>
		<contour>
			<point x="186" y="679" type="line"/>
			<point x="186" y="613" type="line" smooth="yes"/>
			<point x="186" y="547"/>
			<point x="203" y="449"/>
			<point x="216" y="380" type="curve"/>
			<point x="288" y="380" type="line"/>
			<point x="301" y="449"/>
			<point x="317" y="547"/>
			<point x="317" y="613" type="curve" smooth="yes"/>
			<point x="317" y="679" type="line"/>
		</contour>
	</outline>
</glyph>
<glyph name="slash" format="2">
	<unicode hex="002F"/>
	<advance width="500"/>
	<outline>
		<contour>
			<point x="453" y="699" type="line"/>
			<point x="327" y="699" type="line"/>
			<point x="47" y="-165" type="line"/>
			<point x="175" y="-165" type="line"/>
		</contour>
	</outline>
</glyph>
<glyph name="P" format="2">
	<unicode hex="0050"/>
	<advance width="500"/>
	<outline>
		<contour>
			<point x="224" y="626" type="curve" smooth="yes"/>
			<point x="178" y="626"/>
			<point x="103" y="622"/>
			<point x="54" y="611" type="curve"/>
			<point x="54" y="0" type="line"/>
			<point x="177" y="0" type="line"/>
			<point x="177" y="209" type="line"/>
			<point x="221" y="209" type="line" smooth="yes"/>
			<point x="381" y="209"/>
			<point x="472" y="271"/>
			<point x="472" y="419" type="curve" smooth="yes"/>
			<point x="472" y="566"/>
			<point x="382" y="626"/>
		</contour>
		<contour>
			<point x="238" y="519" type="curve" smooth="yes"/>
			<point x="303" y="519"/>
			<point x="346" y="492"/>
			<point x="346" y="420" type="curve" smooth="yes"/>
			<point x="346" y="345"/>
			<point x="305" y="316"/>
			<point x="227" y="316" type="curve" smooth="yes"/>
			<point x="177" y="316" type="line"/>
			<point x="177" y="516" type="line"/>
			<point x="191" y="518"/>
			<point x="223" y="519"/>
		</contour>
	</outline>
</glyph>
<glyph name="Q" format="2">
	<unicode hex="0051"/>
	<advance width="500"/>
	<outline>
		<contour>
			<point x="27" y="307" type="curve" smooth="yes"/>
			<point x="27" y="125"/>
			<point x="87" y="17"/>
			<point x="195" y="-9" type="curve"/>
			<point x="209" y="-102"/>
			<point x="287" y="-149"/>
			<point x="442" y="-170" type="curve"/>
			<point x="468" y="-82" type="line"/>
			<point x="370" y="-65"/>
			<point x="313" y="-44"/>
			<point x="298" y="-11" type="curve"/>
			<point x="410" y="12"/>
			<point x="473" y="121"/>
			<point x="473" y="307" type="curve" smooth="yes"/>
			<point x="473" y="519"/>
			<point x="395" y="630"/>
			<point x="250" y="630" type="curve" smooth="yes"/>
			<point x="111" y="630"/>
			<point x="27" y="519"/>
		</contour>
		<contour>
			<point x="152" y="307" type="curve" smooth="yes"/>
			<point x="152" y="426"/>
			<point x="166" y="523"/>
			<point x="250" y="523" type="curve" smooth="yes"/>
			<point x="335" y="523"/>
			<point x="348" y="427"/>
			<point x="348" y="307" type="curve" smooth="yes"/>
			<point x="348" y="188"/>
			<point x="334" y="91"/>
			<point x="250" y="91" type="curve" smooth="yes"/>
			<point x="165" y="91"/>
			<point x="152" y="188"/>
		</contour>
	</outline>
</glyph>
<glyph name="T" format="2">
	<unicode hex="0054"/>
	<advance width="500"/>
	<outline>
		<contour>
			<point x="475" y="619" type="line"/>
			<point x="475" y="517" type="line"/>
			<point x="312" y="517" type="line"/>
			<point x="312" y="0" type="line"/>
			<point x="188" y="0" type="line"/>
			<point x="188" y="517" type="line"/>
			<point x="25" y="517" type="line"/>
			<point x="25" y="619" type="line"/>
		</contour>
	</outline>
</glyph>
<glyph name="backslash" format="2">
	<unicode hex="005C"/>
	<advance width="500"/>
	<outline>
		<contour>
			<point x="328" y="-165" type="line"/>
			<point x="455" y="-165" type="line"/>
			<point x="175" y="699" type="line"/>
			<point x="49" y="699" type="line"/>
		</contour>
	</outline>
</glyph>
<glyph name="v" format="2">
	<unicode hex="0076"/>
	<advance width="500"/>
	<outline>
		<contour>
			<point x="297" y="0" type="line"/>
			<point x="357" y="118"/>
			<point x="430" y="282"/>
			<point x="486" y="470" type="curve"/>
			<point x="361" y="470" type="line"/>
			<point x="336" y="369"/>
			<point x="281" y="233"/>
			<point x="247" y="143" type="curve"/>
			<point x="213" y="233"/>
			<point x="167" y="369"/>
			<point x="143" y="470" type="curve"/>
			<point x="14" y="470" type="line"/>
			<point x="70" y="282"/>
			<point x="134" y="118"/>
			<point x="194" y="0" type="curve"/>
		</contour>
	</outline>
</glyph>
<glyph name="thorn" format="2">
	<unicode hex="00FE"/>
	<advance width="500"/>
	<outline>
		<contour>
			<point x="469" y="235" type="curve" smooth="yes"/>
			<point x="469" y="385"/>
			<point x="389" y="480"/>
			<point x="244" y="480" type="curve" smooth="yes"/>
			<point x="225" y="480"/>
			<point x="204" y="476"/>
			<point x="186" y="472" type="curve"/>
			<point x="186" y="694" type="line"/>
			<point x="63" y="673" type="line"/>
			<point x="63" y="-165" type="line"/>
			<point x="186" y="-165" type="line"/>
			<point x="186" y="12" type="line"/>
			<point x="221" y="-4"/>
			<point x="252" y="-11"/>
			<point x="283" y="-11" type="curve" smooth="yes"/>
			<point x="406" y="-11"/>
			<point x="469" y="90"/>
		</contour>
		<contour>
			<point x="344" y="231" type="curve" smooth="yes"/>
			<point x="344" y="145"/>
			<point x="316" y="95"/>
			<point x="258" y="95" type="curve" smooth="yes"/>
			<point x="231" y="95"/>
			<point x="202" y="103"/>
			<point x="186" y="113" type="curve"/>
			<point x="186" y="371" type="line"/>
			<point x="200" y="372"/>
			<point x="224" y="375"/>
			<point x="243" y="375" type="curve" smooth="yes"/>
			<point x="311" y="375"/>
			<point x="344" y="315"/>
		</contour>
	</outline>
</glyph>
<glyph name="ldot" format="2">
	<unicode hex="0140"/>
	<advance width="500"/>
	<outline>
		<contour>
			<point x="568" y="368" type="curve" smooth="yes"/>
			<point x="568" y="421"/>
			<point x="528" y="450"/>
			<point x="485" y="450" type="curve" smooth="yes"/>
			<point x="442" y="450"/>
			<point x="402" y="421"/>
			<point x="402" y="368" type="curve" smooth="yes"/>
			<point x="402" y="315"/>
			<point x="442" y="286"/>
			<point x="485" y="286" type="curve" smooth="yes"/>
			<point x="528" y="286"/>
			<point x="568" y="315"/>
		</contour>
		<contour>
			<point x="451" y="119" type="line"/>
			<point x="441" y="115"/>
			<point x="405" y="96"/>
			<point x="356" y="96" type="curve" smooth="yes"/>
			<point x="318" y="96"/>
			<point x="289" y="114"/>
			<point x="289" y="178" type="curve" smooth="yes"/>
			<point x="289" y="693" type="line"/>
			<point x="36" y="693" type="line"/>
			<point x="36" y="591" type="line"/>
			<point x="166" y="591" type="line"/>
			<point x="166" y="187" type="line" smooth="yes"/>
			<point x="166" y="59"/>
			<point x="216" y="-11"/>
			<point x="329" y="-11" type="curve" smooth="yes"/>
			<point x="412" y="-11"/>
			<point x="459" y="15"/>
			<point x="467" y="20" type="curve"/>
		</contour>
	</outline>
</glyph>
<glyph name="uni0240" format="2">
	<unicode hex="0240"/>
	<advance width="500"/>
	<outline>
		<contour>
			<point x="426" y="470" type="line"/>
			<point x="77" y="470" type="line"/>
			<point x="77" y="368" type="line"/>
			<point x="271" y="368" type="line"/>
			<point x="214" y="293"/>
			<point x="129" y="176"/>
			<point x="67" y="75" type="curve"/>
			<point x="67" y="0" type="line"/>
			<point x="79" y="0" type="line" smooth="yes"/>
			<point x="225" y="0"/>
			<point x="258" y="-165"/>
			<point x="391" y="-165" type="curve" smooth="yes"/>
			<point x="405" y="-165"/>
			<point x="444" y="-163"/>
			<point x="473" y="-154" type="curve"/>
			<point x="462" y="-54" type="line"/>
			<point x="443" y="-58"/>
			<point x="423" y="-60"/>
			<point x="403" y="-60" type="curve" smooth="yes"/>
			<point x="329" y="-60"/>
			<point x="284" y="41"/>
			<point x="196" y="73" type="curve"/>
			<point x="263" y="181"/>
			<point x="390" y="341"/>
			<point x="426" y="380" type="curve"/>
		</contour>
	</outline>
</glyph>
<glyph name="tilde" format="2">
	<unicode hex="02DC"/>
	<advance width="500"/>
	<outline>
		<contour>
			<point x="355" y="672" type="line"/>
			<point x="346" y="652"/>
			<point x="330" y="635"/>
			<point x="307" y="635" type="curve" smooth="yes"/>
			<point x="268" y="635"/>
			<point x="238" y="666"/>
			<point x="196" y="666" type="curve" smooth="yes"/>
			<point x="141" y="666"/>
			<point x="104" y="611"/>
			<point x="90" y="574" type="curve"/>
			<point x="149" y="535" type="line"/>
			<point x="159" y="555"/>
			<point x="174" y="573"/>
			<point x="197" y="573" type="curve" smooth="yes"/>
			<point x="237" y="573"/>
			<point x="267" y="542"/>
			<point x="309" y="542" type="curve" smooth="yes"/>
			<point x="363" y="542"/>
			<point x="401" y="597"/>
			<point x="414" y="633" type="curve"/>
		</contour>
	</outline>
</glyph>
<glyph name="dieresistonos" format="2">
	<unicode hex="0385"/>
	<advance width="500"/>
	<outline>
		<contour>
			<point x="171" y="605" type="curve" smooth="yes"/>
			<point x="171" y="647"/>
			<point x="140" y="671"/>
			<point x="104" y="671" type="curve" smooth="yes"/>
			<point x="68" y="671"/>
			<point x="38" y="647"/>
			<point x="38" y="605" type="curve" smooth="yes"/>
			<point x="38" y="564"/>
			<point x="68" y="539"/>
			<point x="104" y="539" type="curve" smooth="yes"/>
			<point x="140" y="539"/>
			<point x="171" y="564"/>
		</contour>
		<contour>
			<point x="462" y="605" type="curve" smooth="yes"/>
			<point x="462" y="647"/>
			<point x="431" y="671"/>
			<point x="396" y="671" type="curve" smooth="yes"/>
			<point x="360" y="671"/>
			<point x="330" y="647"/>
			<point x="330" y="605" type="curve" smooth="yes"/>
			<point x="330" y="564"/>
			<point x="360" y="539"/>
			<point x="396" y="539" type="curve" smooth="yes"/>
			<point x="431" y="539"/>
			<point x="462" y="564"/>
		</contour>
		<contour>
			<point x="257" y="730" type="line"/>
			<point x="179" y="541" type="line"/>
			<point x="241" y="512" type="line"/>
			<point x="338" y="690" type="line"/>
		</contour>
	</outline>
</glyph>
<glyph name="afii10068" format="2">
	<unicode hex="0433"/>
	<advance width="500"/>
	<outline>
		<contour>
			<point x="447" y="470" type="line"/>
			<point x="89" y="470" type="line"/>
			<point x="89" y="0" type="line"/>
			<point x="213" y="0" type="line"/>
			<point x="213" y="368" type="line"/>
			<point x="447" y="368" type="line"/>
		</contour>
	</outline>
</glyph>
<glyph name="afii10074" format="2">
	<unicode hex="0438"/>
	<advance width="500"/>
	<outline>
		<contour>
			<point x="161" y="0" type="line"/>
			<point x="221" y="117"/>
			<point x="265" y="195"/>
			<point x="327" y="288" type="curve"/>
			<point x="327" y="0" type="line"/>
			<point x="438" y="0" type="line"/>
			<point x="438" y="470" type="line"/>
			<point x="339" y="470" type="line"/>
			<point x="265" y="371"/>
			<point x="216" y="288"/>
			<point x="173" y="203" type="curve"/>
			<point x="173" y="470" type="line"/>
			<point x="63" y="470" type="line"/>
			<point x="63" y="0" type="line"/>
		</contour>
	</outline>
</glyph>
<glyph name="afii10078" format="2">
	<unicode hex="043C"/>
	<advance width="500"/>
	<outline>
		<contour>
			<point x="60" y="470" type="line"/>
			<point x="41" y="339"/>
			<point x="32" y="154"/>
			<point x="24" y="0" type="curve"/>
			<point x="137" y="0" type="line"/>
			<point x="132" y="332" type="line"/>
			<point x="206" y="97" type="line"/>
			<point x="296" y="97" type="line"/>
			<point x="371" y="332" type="line"/>
			<point x="365" y="0" type="line"/>
			<point x="478" y="0" type="line"/>
			<point x="474" y="162"/>
			<point x="461" y="305"/>
			<point x="441" y="470" type="curve"/>
			<point x="339" y="470" type="line"/>
			<point x="319" y="413"/>
			<point x="280" y="301"/>
			<point x="250" y="214" type="curve"/>
			<point x="221" y="304"/>
			<point x="181" y="413"/>
			<point x="162" y="470" type="curve"/>
		</contour>
	</outline>
</glyph>
<glyph name="afii10093" format="2">
	<unicode hex="044B"/>
	<advance width="500"/>
	<outline>
		<contour>
			<point x="130" y="470" type="line"/>
			<point x="34" y="470" type="line"/>
			<point x="34" y="9" type="line"/>
			<point x="78" y="-2"/>
			<point x="117" y="-10"/>
			<point x="165" y="-10" type="curve" smooth="yes"/>
			<point x="248" y="-10"/>
			<point x="327" y="20"/>
			<point x="327" y="148" type="curve" smooth="yes"/>
			<point x="327" y="263"/>
			<point x="263" y="311"/>
			<point x="196" y="311" type="curve" smooth="yes"/>
			<point x="175" y="311"/>
			<point x="156" y="308"/>
			<point x="130" y="303" type="curve"/>
		</contour>
		<contour>
			<point x="367" y="0" type="line"/>
			<point x="463" y="0" type="line"/>
			<point x="463" y="470" type="line"/>
			<point x="367" y="470" type="line"/>
		</contour>
		<contour>
			<point x="229" y="152" type="curve" smooth="yes"/>
			<point x="229" y="106"/>
			<point x="214" y="83"/>
			<point x="170" y="83" type="curve" smooth="yes"/>
			<point x="156" y="83"/>
			<point x="146" y="85"/>
			<point x="130" y="87" type="curve"/>
			<point x="130" y="213" type="line"/>
			<point x="145" y="216"/>
			<point x="156" y="218"/>
			<point x="170" y="218" type="curve" smooth="yes"/>
			<point x="213" y="218"/>
			<point x="229" y="193"/>
		</contour>
	</outline>
</glyph>
<glyph name="uni04C5" format="2">
	<unicode hex="04C5"/>
	<advance width="500"/>
	<outline>
		<contour>
			<point x="23" y="-13" type="line"/>
			<point x="238" y="5"/>
			<point x="251" y="284"/>
			<point x="260" y="517" type="curve"/>
			<point x="314" y="517" type="line"/>
			<point x="314" y="0" type="line"/>
			<point x="352" y="0" type="line"/>
			<point x="338" y="-39"/>
			<point x="313" y="-80"/>
			<point x="281" y="-122" type="curve"/>
			<point x="355" y="-169" type="line"/>
			<point x="434" y="-88"/>
			<point x="473" y="15"/>
			<point x="473" y="109" type="curve" smooth="yes"/>
			<point x="473" y="112"/>
			<point x="473" y="114"/>
			<point x="473" y="118" type="curve"/>
			<point x="438" y="118" type="line"/>
			<point x="438" y="619" type="line"/>
			<point x="147" y="619" type="line"/>
			<point x="147" y="450"/>
			<point x="138" y="313"/>
			<point x="116" y="226" type="curve" smooth="yes"/>
			<point x="99" y="159"/>
			<point x="78" y="117"/>
			<point x="8" y="93" type="curve"/>
		</contour>
	</outline>
</glyph>
<glyph name="uni04C9" format="2">
	<unicode hex="04C9"/>
	<advance width="500"/>
	<outline>
		<contour>
			<point x="314" y="619" type="line"/>
			<point x="314" y="375" type="line"/>
			<point x="168" y="375" type="line"/>
			<point x="168" y="619" type="line"/>
			<point x="45" y="619" type="line"/>
			<point x="45" y="0" type="line"/>
			<point x="168" y="0" type="line"/>
			<point x="168" y="273" type="line"/>
			<point x="314" y="273" type="line"/>
			<point x="314" y="0" type="line"/>
			<point x="352" y="0" type="line"/>
			<point x="338" y="-39"/>
			<point x="313" y="-80"/>
			<point x="281" y="-122" type="curve"/>
			<point x="355" y="-169" type="line"/>
			<point x="434" y="-88"/>
			<point x="473" y="15"/>
			<point x="473" y="109" type="curve" smooth="yes"/>
			<point x="473" y="112"/>
			<point x="473" y="114"/>
			<point x="473" y="118" type="curve"/>
			<point x="438" y="118" type="line"/>
			<point x="438" y="619" type="line"/>
		</contour>
	</outline>
</glyph>
<glyph name="uni1FCE" format="2">
	<unicode hex="1FCE"/>
	<advance width="500"/>
	<outline>
		<contour>
			<point x="344" y="740" type="line"/>
			<point x="236" y="569" type="line"/>
			<point x="295" y="526" type="line"/>
			<point x="421" y="685" type="line"/>
		</contour>
		<contour>
			<point x="118" y="520" type="line"/>
			<point x="180" y="565"/>
			<point x="229" y="620"/>
			<point x="229" y="674" type="curve" smooth="yes"/>
			<point x="229" y="718"/>
			<point x="205" y="742"/>
			<point x="167" y="742" type="curve" smooth="yes"/>
			<point x="130" y="742"/>
			<point x="105" y="718"/>
			<point x="105" y="683" type="curve" smooth="yes"/>
			<point x="105" y="659"/>
			<point x="121" y="637"/>
			<point x="145" y="627" type="curve"/>
			<point x="128" y="603"/>
			<point x="106" y="582"/>
			<point x="78" y="558" type="curve"/>
		</contour>
	</outline>
</glyph>
<glyph name="commaaccent" format="2">
	<advance width="500"/>
	<outline>
		<contour>
			<point x="238" y="-52" type="line" smooth="yes"/>
			<point x="238" y="-101"/>
			<point x="209" y="-104"/>
			<point x="164" y="-104" type="curve"/>
			<point x="164" y="-163" type="line"/>
			<point x="172" y="-166"/>
			<point x="201" y="-170"/>
			<point x="219" y="-170" type="curve" smooth="yes"/>
			<point x="293" y="-170"/>
			<point x="336" y="-140"/>
			<point x="336" y="-76" type="curve" smooth="yes"/>
			<point x="336" y="-66"/>
			<point x="335" y="-56"/>
			<point x="333" y="-45" type="curve"/>
			<point x="238" y="-45" type="line"/>
		</contour>
	</outline>
</glyph>
<glyph name="tilde_macron" format="2">
	<advance width="500"/>
	<outline>
		<contour>
			<point x="341" y="641" type="line"/>
			<point x="331" y="623"/>
			<point x="319" y="608"/>
			<point x="298" y="608" type="curve" smooth="yes"/>
			<point x="264" y="608"/>
			<point x="238" y="635"/>
			<point x="203" y="635" type="curve" smooth="yes"/>
			<point x="155" y="635"/>
			<point x="121" y="597"/>
			<point x="111" y="564" type="curve"/>
			<point x="160" y="525" type="line"/>
			<point x="170" y="543"/>
			<point x="181" y="558"/>
			<point x="202" y="558" type="curve" smooth="yes"/>
			<point x="235" y="558"/>
			<point x="263" y="532"/>
			<point x="298" y="532" type="curve" smooth="yes"/>
			<point x="346" y="532"/>
			<point x="377" y="579"/>
			<point x="389" y="610" type="curve"/>
		</contour>
		<contour>
			<point x="134" y="661" type="line"/>
			<point x="366" y="661" type="line"/>
			<point x="366" y="732" type="line"/>
			<point x="134" y="732" type="line"/>
		</contour>
	</outline>
</glyph>
